<?xml version="1.0" standalone="no"?><!DOCTYPE svg PUBLIC "-//W3C//DTD SVG 1.1//EN" "http://www.w3.org/Graphics/SVG/1.1/DTD/svg11.dtd"><svg t="1507546507403" class="icon" style="" viewBox="0 0 1024 1024" version="1.1" xmlns="http://www.w3.org/2000/svg" p-id="4430" xmlns:xlink="http://www.w3.org/1999/xlink" width="200" height="200"><defs><style type="text/css"></style></defs><path d="M0 527.703693l0.024 12.655753c0.057999 32.155372 2.487951 39.209234 6.995863 58.38086l0.339993-0.045999c38.565247 226.231581 225.375598 401.820152 456.821078 423.079736l1.937962 0.187997c3.05194 0.245995 6.12788 0.50399 9.191821 0.727986l4.07392 0.257995c2.617949 0.175997 5.223898 0.305994 7.853847 0.445991 1.689967 0.081998 3.391934 0.105998 5.0959 0.199996 2.359954 0.057999 4.683909 0.163997 7.031863 0.245995 2.711947 0.045999 5.423894 0.057999 8.15984 0.081999 1.313974 0.035999 2.663948 0.057999 3.979923 0.057998l0.597988-0.011999c3.837925 0 7.68985-0.069999 11.481776-0.129998l1.843964-0.045999a655.967188 655.967188 0 0 0 10.799789-0.421992l3.06394-0.129997c3.181938-0.187996 6.397875-0.399992 9.579813-0.633988l4.495912-0.339993c2.101959-0.175997 4.155919-0.363993 6.221878-0.563989 229.437519-21.413582 414.873897-194.466202 455.259109-418.067835 4.907904-19.193625 4.965903-25.181508 7.431855-55.598914h0.023999l0.563989-0.023999c0.081998-1.937962 0.117998-3.827925 0.151997-5.729888v-2.251956h0.012V539.047472c3.215937-38.165255-1.749966-100.890029-14.697713-149.409082l-0.679987-2.605949C951.935408 164.682784 750.931333 0 511.50401 0 266.288799 0 61.398801 172.758626 11.599773 403.322123h-0.011999c-0.057999 0.163997-0.105998 0.351993-0.151997 0.51599l-0.833984 3.121939-0.50399 1.901962-0.903983 3.369935C2.877944 438.363438 0.881983 469.532829 0.271995 496.780297c-0.151997 5.059901-0.245995 10.131802-0.245996 15.213703v0.973981C0 518.14788 0 523.077784 0 527.703693z" fill="#FEE9C1" p-id="4431"></path><path d="M80.850421 525.213742l0.012 10.671791c0.057999 27.071471 2.101959 33.011355 5.893885 49.15304l0.281994-0.035999c32.483366 190.508279 189.792293 338.367391 384.692487 356.271042l1.631968 0.151997c2.57195 0.211996 5.153899 0.421992 7.747848 0.609988l3.415934 0.223995c2.207957 0.151997 4.401914 0.257995 6.62187 0.375993 1.419972 0.069999 2.863944 0.093998 4.295916 0.175997 1.971961 0.045999 3.931923 0.139997 5.915885 0.199996 2.289955 0.035999 4.565911 0.057999 6.867866 0.069998 1.103978 0.024 2.241956 0.045999 3.357934 0.046l0.50399-0.012c3.227937 0 6.467874-0.045999 9.661812-0.105998l1.549969-0.035999a781.30474 781.30474 0 0 0 9.097823-0.351994l2.581949-0.117997c2.675948-0.163997 5.375895-0.327994 8.065843-0.52799l3.791926-0.293994c1.759966-0.151997 3.485932-0.305994 5.235897-0.469991 193.208226-18.031648 349.369176-163.754802 383.366513-352.057124 4.131919-16.165684 4.179918-21.201586 6.257877-46.817086h0.024l0.469991-0.023999h0.012c0.057999-1.619968 0.093998-3.215937 0.117997-4.825906v-1.895963h0.012v-0.837983c2.711947-32.131372-1.479971-84.958341-12.373758-125.823543l-0.575989-2.183957C882.460764 219.529712 713.21207 80.838421 511.586008 80.838421c-206.497967 0-379.034597 145.487158-420.979778 339.635367-0.045999 0.151997-0.093998 0.293994-0.129997 0.445991l-0.703986 2.629949-0.421992 1.595968-0.763985 2.841945c-5.317896 21.99957-7.007863 48.249058-7.513853 71.188609a420.961778 420.961778 0 0 0-0.211996 12.81975v0.821984c-0.01 4.355915-0.01 8.499834-0.01 12.395758z" fill="#FEEBC7" p-id="4432"></path><path d="M235.389403 520.471835l0.011999 6.843866c0.035999 17.363661 1.349974 21.177586 3.779926 31.531384l0.187997-0.024c20.837593 122.219613 121.749622 217.08776 246.79918 228.567536l1.043979 0.093998c1.643968 0.139997 3.297936 0.281994 4.965903 0.399993l2.195957 0.129997c1.407973 0.105998 2.817945 0.175997 4.237917 0.257995 0.915982 0.035999 1.843964 0.045999 2.757947 0.093998l3.791926 0.139997c1.479971 0.024 2.933943 0.035999 4.413913 0.046 0.703986 0.012 1.443972 0.024 2.147958 0.023999h0.315994c2.077959 0 4.155919-0.035999 6.209879-0.069999l0.985981-0.023999c1.971961-0.069999 3.909924-0.139997 5.845885-0.233995l1.655968-0.069999c1.713967-0.093998 3.451933-0.211996 5.165899-0.327994l2.441953-0.199996a151.659038 151.659038 0 0 0 3.357934-0.305994c123.945579-11.563774 224.131622-105.045948 245.943196-225.845589 2.653948-10.365798 2.675948-13.605734 4.015922-30.041413h0.012l0.305994-0.012a95.058143 95.058143 0 0 0 0.081998-3.099939v-1.205977h0.012v-0.525989c1.737966-20.625597-0.949981-54.506935-7.947845-80.732424l-0.363993-1.397972c-30.099412-120.119654-138.691291-209.091916-268.036765-209.091916-132.481412 0-243.161251 93.340177-270.068725 217.885744h-0.012c-0.024 0.093998-0.045999 0.199996-0.081998 0.281994l-0.445991 1.689967-0.269995 1.02198-0.49399 1.831965c-3.403934 14.111724-4.483912 30.945396-4.813906 45.667108-0.081998 2.735947-0.139997 5.481893-0.139998 8.229839v0.51599c-0.01 2.801945-0.01 5.455893-0.009999 7.955845z" fill="#FEEFD2" p-id="4433"></path><path d="M380.42057 516.021921l0.012 3.251937c0.012 8.263839 0.633988 10.071803 1.795965 15.003707l0.081998-0.012c9.919806 58.134865 57.922869 103.259983 117.395707 108.719877l0.49399 0.045999c0.785985 0.057999 1.583969 0.129997 2.371954 0.187996l1.04398 0.057999c0.669987 0.045999 1.337974 0.081998 2.01996 0.117998 0.421992 0.024 0.867983 0.035999 1.303975 0.045999l1.807965 0.069998c0.691986 0.012 1.397973 0.024 2.089959 0.024 0.339993 0.012 0.691986 0.012 1.033979 0.012h0.151998c0.985981 0 1.971961-0.012 2.945942-0.036l0.481991-0.011999c0.927982-0.035999 1.843964-0.057999 2.769945-0.105998l0.785985-0.036c0.821984-0.045999 1.643968-0.105998 2.465952-0.163996l1.149978-0.081999c0.539989-0.045999 1.067979-0.093998 1.595968-0.151997 58.966848-5.505892 106.617918-49.963024 116.983715-107.427902 1.267975-4.929904 1.279975-6.467874 1.913963-14.287721H643.269436c0.024-0.50399 0.035999-0.985981 0.035999-1.479971v-0.581988h0.012V518.921865c0.821984-9.801809-0.457991-25.921494-3.779926-38.38725l-0.175997-0.669987c-14.32172-57.136884-65.964712-99.458057-127.491509-99.458058-63.018769 0-115.669741 44.399133-128.465491 103.647976-0.012 0.035999-0.024 0.081998-0.045999 0.129997l-0.211996 0.797985-0.129998 0.49399-0.223995 0.867983c-1.619968 6.703869-2.147958 14.721712-2.289956 21.717576a110.843835 110.843835 0 0 0-0.069998 3.909924v0.245995c-0.012 1.349974-0.012 2.617949-0.012 3.803925z" fill="#FEF5E5" p-id="4434"></path><path d="M96.570114 557.123119s78.444468-37.89526 95.020144-46.817086c16.587676-8.909826 118.77968 49.047042 118.77968 49.047042l125.94154-51.266999s95.770129 49.787028 118.029695 62.160786c22.269565 12.385758-57.886869 27.247468-103.91797 23.783536-46.031101-3.473932-364.736876-6.443874-353.853089-36.907279z" fill="#FFB54C" p-id="4435"></path><path d="M0.105998 548.893279c31.379387-21.671577 53.508955-45.161118 85.322333-27.377465 31.825378 17.785653 95.76013 39.339232 116.549724 43.295155 20.791594 3.967923 69.086651-44.985121 111.489823-43.295155 42.415172 1.689967 123.569587 50.233019 139.407277 46.265097 15.835691-3.955923 89.08026-75.296529 122.737603-67.360685 33.657343 7.935845 56.654893 73.054573 94.268158 64.144747 37.613265-8.921826 182.936427-103.249983 218.483733-89.902244 35.559305 13.347739 88.152278 51.300998 133.913385 73.394567-2.465952 30.393406-2.523951 36.381289-7.431855 55.574914a509.044058 509.044058 0 0 1-15.601695 63.028769L33.071354 693.26646C18.383641 654.479217 0.891983 590.908459 0.105998 548.893279z" fill="#FFCB7F" p-id="4436"></path><path d="M927.375887 298.524169c5.211898 0 10.119802 0.845983 14.475717 2.335955 4.707908-3.133939 11.151782-5.071901 18.267644-5.071901 6.561872 0 12.561755 1.655968 17.151665 4.367915a508.784063 508.784063 0 0 1 17.985648 45.127118 26.729478 26.729478 0 0 1-3.921923-1.115978c-2.511951 5.833886-10.413797 10.083803-19.793613 10.083803-5.729888 0-10.905787-1.583969-14.651714-4.155919-3.733927 2.57195-8.909826 4.155919-14.639714 4.155919-5.447894 0-10.389797-1.431972-14.087725-3.779926-3.755927 2.805945-9.179821 4.565911-15.203703 4.565911-5.64589 0-10.75379-1.53797-14.463718-4.037921-1.701967 0.257995-3.473932 0.387992-5.281897 0.387992-13.571735 0-24.55952-7.477854-24.55952-16.705674 0-9.23982 10.987785-16.717673 24.55952-16.717673 0.727986 0 1.467971 0.035999 2.183958 0.069998 1.737966-10.963786 15.391699-19.509619 31.979375-19.509619zM662.297065 165.832761c9.309818 0 18.101646 1.501971 25.885494 4.179918 8.417836-5.62389 19.95761-9.085823 32.683362-9.085822 22.03557 0 40.501209 10.377797 45.455112 24.347524 11.011785 2.253956 19.839613 7.911845 23.877533 15.179704 1.325974-0.105998 2.663948-0.139997 4.025922-0.139997 20.343603 0 36.86128 11.223781 36.86128 25.08751s-16.517677 25.09951-36.86128 25.099509c-6.351876 0-12.325759-1.091979-17.527658-3.005941-4.471913 10.423796-18.629636 18.043648-35.407308 18.043648-10.2378 0-19.511619-2.841944-26.191489-7.441855-6.67987 4.60191-15.953688 7.441855-26.203488 7.441855-9.73181 0-18.595637-2.58195-25.193508-6.773868-6.737868 5.011902-16.423679 8.16984-27.211468 8.16984-10.095803 0-19.229624-2.757946-25.873495-7.219859-3.039941 0.457991-6.221878 0.691986-9.461815 0.691987-24.265526 0-43.929142-13.383739-43.929142-29.901416 0-16.505678 19.663616-29.889416 43.929142-29.889416 1.325974 0 2.641948 0.045999 3.931923 0.129997 3.115939-19.639616 27.533462-34.913318 57.210883-34.913318zM256.168997 347.935204c5.211898 0 10.119802 0.845983 14.475717 2.335955 4.707908-3.133939 11.151782-5.071901 18.267643-5.071901 12.315759 0 22.645558 5.799887 25.403504 13.605734 6.16388 1.255975 11.093783 4.425914 13.347739 8.487834 0.739986-0.057999 1.489971-0.081998 2.253956-0.081998 11.375778 0 20.613597 6.279877 20.613598 14.027726s-9.23982 14.029726-20.613598 14.029726c-3.545931 0-6.891865-0.609988-9.789808-1.689967-2.499951 5.833886-10.413797 10.083803-19.793614 10.083803-5.729888 0-10.905787-1.583969-14.639714-4.155919-3.733927 2.57195-8.921826 4.155919-14.651714 4.155919-5.435894 0-10.389797-1.431972-14.075725-3.779926-3.767926 2.805945-9.19182 4.565911-15.213703 4.565911-5.63589 0-10.75379-1.53797-14.463717-4.037922-1.701967 0.257995-3.473932 0.387992-5.281897 0.387993-13.571735 0-24.55952-7.477854-24.55952-16.705674s10.987785-16.717673 24.55952-16.717673c0.727986 0 1.467971 0.035999 2.195957 0.081998 1.735966-10.973786 15.389699-19.521619 31.965376-19.521619z" fill="#FFFFFF" p-id="4437"></path><path d="M552.215215 139.019285s11.351778-2.429953 20.849592-0.609988c9.509814 1.819964 19.429621 9.71981 30.171411 10.329798 10.72979 0.609988 8.499834-3.451933 8.499834-3.451933s-6.891865 1.02198-8.70983-4.847905c-1.819964-5.881885 5.669889-10.553794 17.197664-18.641636 11.551774-8.099842 13.769731-16.211683 11.551775-21.283584 0 0-2.02996 3.239937-11.551775 8.311837-9.509814 5.071901-16.38768 14.391719-23.877533 21.061589-7.489854 6.703869-7.899846 7.101861-14.979708 5.681889-7.079862-1.421972-22.259565-3.639929-29.15143 3.449933z" fill="" p-id="4438"></path><path d="M9.615812 610.972067c239.61532 31.145392 441.265382-3.767926 712.142091 51.864987 94.832148 19.487619 195.170188-44.52713 291.750302-52.21698 0.469991-2.323955 0.915982-4.647909 1.337974-6.985864l1.479971-6.033882c-97.132103 7.007863-198.15213 71.962594-293.582266 52.358977-272.322681-55.926908-474.686729-20.333603-715.994016-52.358977l0.269995 1.137978 0.339993-0.045999c0.693986 4.11992 1.445972 8.20584 2.255956 12.27976z" fill="#DFF5F9" p-id="4439"></path><path d="M337.747403 227.429558s11.351778-2.429953 20.849593-0.609988c9.519814 1.819964 19.44162 9.71981 30.171411 10.341798 10.72979 0.597988 8.499834-3.451933 8.499834-3.451933s-6.879866 1.00998-8.70983-4.859905c-1.807965-5.881885 5.669889-10.553794 17.209664-18.641636 11.539775-8.099842 13.769731-16.211683 11.539774-21.283584 0 0-2.019961 3.239937-11.539774 8.311838-9.509814 5.071901-16.38768 14.391719-23.877534 21.061588-7.489854 6.703869-7.899846 7.101861-14.991707 5.681889-7.081862-1.421972-22.261565-3.639929-29.151431 3.449933zM706.860194 344.413273s11.339779-2.441952 20.849593-0.621988c9.519814 1.831964 19.429621 9.73181 30.171411 10.341798 10.717791 0.597988 8.487834-3.451933 8.487834-3.451932s-6.879866 1.02198-8.69983-4.859905c-1.819964-5.869885 5.669889-10.541794 17.197664-18.629636 11.551774-8.111842 13.781731-16.211683 11.551774-21.283585 0 0-2.02996 3.239937-11.551774 8.311838-9.509814 5.071901-16.38768 14.391719-23.877534 21.061589-7.489854 6.691869-7.899846 7.089862-14.979707 5.681889-7.077862-1.421972-22.269565-3.639929-29.149431 3.449932z" fill="" p-id="4440"></path><path d="M755.20325 651.133283l1.52597-6.901866v-0.011999l10.941786 2.429952 12.795751 2.829945c-2.207957-1.501971-4.367915-3.673928-6.409875-6.409875l20.157606 4.449913a117.597703 117.597703 0 0 0 0.024-9.497814l-0.036-0.633988-0.012-0.257995-0.011999-0.351993-0.036-0.633988-0.011999-0.293994-0.024-0.327994-0.035999-0.621987-0.024-0.327994-0.023999-0.293994-0.045999-0.609988-0.036-0.351993-0.011999-0.269995-0.046-0.621988-0.045999-0.387992-0.023999-0.223996-0.057999-0.609988-0.035999-0.421992-0.024-0.199996-0.057999-0.609988-0.045999-0.445991-0.023999-0.163997-0.069999-0.609988-0.057999-0.469991-0.023999-0.139997-0.081999-0.609988-0.057999-0.503991-0.023999-0.105998-0.081999-0.597988-0.069998-0.539989-0.012-0.069999-0.093998-0.609988-0.081999-0.551989-0.011999-0.045999-0.093998-0.609988-0.093999-0.575989v-0.024l-0.105998-0.597988-0.105997-0.597988v-0.012l-0.105998-0.585989-0.117998-0.597988v-0.035999l-0.105998-0.563989-0.117998-0.597989-0.012-0.057998-0.105997-0.52799-0.129998-0.597988-0.129997-0.585989-0.117998-0.597988-0.035999-0.129998-0.105998-0.457991-0.129998-0.597988-0.035999-0.151997-0.105998-0.433992-0.129997-0.585988-0.046-0.175997-0.093998-0.409992-0.151997-0.585988-0.045999-0.211996-0.093998-0.363993-0.151997-0.585989-0.057999-0.245995-0.093998-0.339993-0.151997-0.585989-0.069999-0.269995-0.093998-0.305994-0.163997-0.585988-0.069998-0.293994-0.081999-0.293995-0.163997-0.575988-0.093998-0.315994-0.081998-0.257995-0.163997-0.575989-0.105998-0.351993-0.069998-0.233995-0.175997-0.575989-0.117998-0.363993-0.057999-0.211996-0.175996-0.575989-0.129998-0.399992-0.057998-0.175996-0.187997-0.563989-0.139997-0.433992-0.045999-0.139997-0.187996-0.563989-0.151997-0.469991-0.036-0.105998-0.199996-0.575989-0.163997-0.48199-0.035999-0.081999-0.199996-0.563989-0.187996-0.51599-0.012-0.057998-0.211996-0.563989c-3.57993-9.849808-8.20584-19.357622-13.487737-28.621441 0.49399 11.139782-0.809984 20.895592-3.181937 29.231429l-0.036 0.151997-0.045999 0.139997-0.035999 0.129997-0.035999 0.105998-0.012 0.045999c-0.339993 1.137978-0.679987 2.253956-1.05598 3.333935l-0.045999 0.129998-0.045999 0.129997c-1.52597 4.319916-3.333935 8.217839-5.341895 11.657773v0.011999-0.023999l-0.129998-0.621988-0.012-0.045999v-0.012l16.91567-76.612504-3.943923-0.867983c-9.051823 6.291877-17.879651 12.79575-26.225488 19.745615l-0.339993 0.293994-0.351993 0.293994-0.363993 0.293994-0.339994 0.293995-0.011999 0.011999-0.339994 0.293995-0.339993 0.293994-0.351993 0.293994-0.351993 0.293994-0.069999 0.069999-0.281994 0.233996-0.339994 0.293994-0.351993 0.305994-0.339993 0.305994-0.129998 0.105998-0.211996 0.187996-0.339993 0.305994-0.351993 0.305994-0.339993 0.293994-0.187997 0.163997-0.139997 0.139997-0.351993 0.305995-0.339993 0.293994-0.339994 0.315994-0.245995 0.211995-0.093998 0.093999-0.339994 0.305994-0.339993 0.305994-0.327994 0.305994-0.305994 0.269994-0.035999 0.036-0.339993 0.305994-0.327994 0.315994-0.339993 0.317993-0.327994 0.305994-0.023999 0.012-0.305994 0.293994-0.339994 0.315994-0.327993 0.305994-0.327994 0.315994-0.081998 0.069999-0.245995 0.245995-0.327994 0.317994-0.327994 0.315994-0.327993 0.305994-0.139998 0.129997-0.187996 0.187996-0.327993 0.327994-0.317994 0.315994-0.327994 0.315994-0.657987 0.633987-0.317994 0.327994-0.315994 0.315994-0.245995 0.245995-0.081998 0.081998-0.315994 0.315994-0.315994 0.327994-0.317994 0.317993-0.293994 0.305994-0.023999 0.024-0.315994 0.327994-0.327994 0.327993-0.305994 0.315994-0.315994 0.327994-0.035999 0.035999-0.281994 0.293994-0.317994 0.339994-0.305994 0.327993-0.305994 0.327994-0.093998 0.081998-0.211996 0.245995-0.317994 0.327994-0.305994 0.339993-0.305994 0.339994-0.151997 0.139997-0.151997 0.187996-0.315994 0.339994a158.500904 158.500904 0 0 0-10.013804 12.149762l-0.175997 0.233996-0.175997 0.233995-0.035999 0.045999-0.139997 0.187997-0.163997 0.233995-0.175997 0.233995-0.175996 0.233996-0.175997 0.233995-0.163996 0.245995-0.129998 0.175997-0.035999 0.057999-0.175997 0.233995-0.175996 0.245996-0.163997 0.233995-0.163997 0.233995-0.163997 0.245996-0.175996 0.233995-0.057999 0.069999-0.105998 0.175996-0.175997 0.233996-0.163996 0.245995-0.163997 0.245995-0.163997 0.233995-0.163997 0.245996-0.139997 0.199996-0.024 0.045999-0.163996 0.233995-0.163997 0.245995-0.163997 0.245996-0.163997 0.245995-0.163997 0.245995-0.163996 0.245995-0.057999 0.081999-0.105998 0.163996-0.151997 0.245996-0.163997 0.245995-0.163997 0.245995-0.151997 0.245995-0.151997 0.245995-0.151997 0.223996-0.023999 0.035999-0.151997 0.245996-0.151998 0.245995-0.163996 0.245995-0.151997 0.257995-0.151997 0.245995-0.163997 0.245995-0.305994 0.50399-0.163997 0.257995-0.151997 0.245996-0.151997 0.257995-0.151997 0.257995-0.151997 0.233995v0.012l-0.151997 0.257995-0.151997 0.257995-0.151997 0.257995-0.151997 0.257995-0.139998 0.245995-0.151997 0.257995-0.069998 0.117997-0.081999 0.139998-0.151997 0.257995-0.151997 0.257995-0.139997 0.257995-0.139997 0.257995-0.151997 0.257994-0.151997 0.257995-0.139997 0.269995-0.151998 0.257995-0.139997 0.257995a133.351395 133.351395 0 0 0-10.74179 25.08751l40.289213 8.909826 14.885709 3.297936-1.53797 6.891865-55.164922-12.209761 0.012 0.069998 0.023999 0.057999 0.012 0.057999 0.023999 0.057999 0.012 0.069998 0.024 0.045999 0.012 0.069999 0.023999 0.057999 0.012 0.057999 0.023999 0.057999 0.012 0.045999v0.012l0.024 0.057998 0.023999 0.069999 0.012 0.057999 0.023999 0.057999 0.012 0.057999 0.024 0.069998 0.023999 0.045999 0.012 0.057999 0.024 0.069999 0.011999 0.045999 0.012 0.035999 0.012 0.036 0.023999 0.057998 0.012 0.057999 0.024 0.057999 0.023999 0.057999 0.024 0.057999 0.012 0.057999 0.011999 0.057999 0.024 0.057999 0.035999 0.129997h0.012l0.012 0.045999 0.023999 0.069999 0.024 0.057999 0.012 0.057998 0.023999 0.057999 0.024 0.057999 0.011999 0.057999 0.024 0.057999 0.023999 0.057999 0.012 0.057999 0.024 0.045999v0.012l0.023999 0.057998 0.024 0.046 0.023999 0.069998 0.024 0.045999 0.012 0.069999 0.023999 0.057999 0.024 0.045999 0.023999 0.069999 0.012 0.045999 0.023999 0.057998 0.012 0.036 0.012 0.023999 0.024 0.057999 0.023999 0.057999 0.012 0.057999 0.023999 0.057999 0.024 0.057999 0.023999 0.057999 0.024 0.057998 0.023999 0.057999 0.024 0.045999 0.012 0.057999 0.035999 0.093998 0.045999 0.081999 0.024 0.105998 0.035999 0.081998 0.035999 0.093998 0.036 0.081999 0.011999 0.023999 0.024 0.057999 0.035999 0.093998 0.035999 0.081999 0.036 0.093998 0.035999 0.093998 0.024 0.081998 0.023999 0.036 0.024 0.045999 0.035999 0.093998 0.035999 0.081998 0.036 0.093998 0.035999 0.081999 0.045999 0.093998 0.105998 0.257995 0.035999 0.081998 0.035999 0.093999 0.036 0.081998 0.035999 0.069999 0.012 0.011999 0.035999 0.081999 0.035999 0.081998 0.046 0.093998 0.035999 0.081999 0.069998 0.175996 0.012 0.012 0.151997 0.327994 0.036 0.081998 0.045999 0.081998 0.011999 0.024 0.057999 0.139997 0.045999 0.081999 0.036 0.093998 0.035999 0.081998 0.045999 0.081999 0.024 0.035999 0.011999 0.045999 0.046 0.081998 0.035999 0.081999 0.045999 0.081998 0.081998 0.163997 0.036 0.057999 0.011999 0.035999 0.036 0.069999 0.045999 0.093998 0.035999 0.069999 0.045999 0.081998 0.045999 0.081998 0.036 0.069999v0.012l0.045999 0.081998 0.045999 0.081999 0.035999 0.081998 0.045999 0.081998 0.045999 0.081999 0.036 0.069998 0.011999 0.012 0.036 0.069999 0.045999 0.081998 0.045999 0.093998 0.057999 0.105998 0.045999 0.093998 0.045999 0.081999 0.023999 0.035999 0.036 0.057999 0.045999 0.105998 0.057999 0.093998 0.045999 0.093998 0.045999 0.069999 0.012 0.023999 0.057999 0.081999 0.045999 0.105998 0.057998 0.081998 0.057999 0.093998v0.024l0.045999 0.069998 0.057999 0.093999 0.045999 0.093998 0.057999 0.093998 0.036 0.045999 0.023999 0.045999 0.057999 0.093998 0.057999 0.093999 0.045999 0.081998 0.057999 0.093998 0.057999 0.093998 0.057999 0.081999 0.057998 0.093998 0.046 0.093998 0.023999 0.023999 0.035999 0.069999 0.057999 0.081999 0.057999 0.093998 0.057999 0.081998 0.045999 0.069999 0.012 0.023999 0.057999 0.081999 0.057999 0.093998 0.057998 0.081998 0.117998 0.187997 0.057999 0.081998 0.057999 0.093998 0.057999 0.081999 0.035999 0.057998 0.024 0.036 0.057998 0.093998 0.069999 0.081998 0.045999 0.081999 0.057999 0.081998 0.012 0.012 0.057999 0.081998 0.057999 0.093998 0.069998 0.081999 0.045999 0.081998 0.024 0.035999 0.045999 0.046 0.057999 0.093998 0.057999 0.081998 0.069998 0.081999 0.036 0.057998 0.023999 0.036 0.069999 0.081998 0.045999 0.081998 0.069998 0.093999 0.057999 0.081998h0.012l0.057999 0.081998 0.057999 0.081999 0.069998 0.081998 0.069999 0.081999 0.024 0.045999 0.035999 0.045999 0.069999 0.081998 0.057998 0.081999 0.081999 0.105998 0.081998 0.105997 0.057999 0.057999 0.024 0.036 0.081998 0.105998 0.081998 0.117997 0.036 0.024 0.057999 0.069998 0.081998 0.105998 0.081998 0.105998 0.081999 0.105998 0.081998 0.105998 0.057999 0.069999 0.035999 0.023999 0.081999 0.105998 0.081998 0.105998 0.035999 0.035999 0.057999 0.069999 0.081999 0.093998 0.081998 0.105998 0.093998 0.093998 0.081999 0.105998 0.057999 0.057999 0.035999 0.045999 0.093998 0.105998 0.081998 0.093998 0.024 0.024 0.057999 0.069999 0.093998 0.105997 0.093998 0.093999 0.081999 0.093998 0.093998 0.105998 0.057999 0.057999 0.035999 0.035999 0.081998 0.093998 0.093998 0.105998 0.024 0.024 0.069999 0.069998 0.093998 0.093998 0.081998 0.093998v0.012l0.105998 0.093998 0.081998 0.093999 0.057999 0.057998 0.036 0.036 0.093998 0.105998 0.105998 0.081998 0.011999 0.024 0.069999 0.081998 0.105998 0.081998 0.081998 0.093999v0.011999l0.093999 0.093998 0.105998 0.093999 0.045999 0.057999 0.045999 0.035999 0.081998 0.093998 0.105998 0.081998 0.012 0.024 0.081998 0.069999 0.093998 0.093998 0.081999 0.081998 0.012 0.012 0.105997 0.093998 0.481991 0.445991 0.105998 0.093998c3.497932 3.239937 7.571852 5.951884 11.997766 8.087843l0.045999 0.035999 0.139997 0.057999 0.751985 0.363993-0.045999 0.011999 0.045999-0.011999c7.899846 3.743927 17.021668 6.081881 26.65948 7.383855l4.825905 16.047687 10.389797 2.299955 3.497932-15.88369h0.012l0.233995-1.115978h0.491991l0.233995 0.012h1.207977l0.50399 0.012h2.177957l0.727986-0.012h0.737986l3.145938-0.057999 0.245995-0.012h0.479991v-0.012h0.245995v-0.011999h0.233996l0.727985-0.024h0.012l0.223996-0.012h0.257995l0.715986-0.023999h0.011999l0.233996-0.012h0.012l0.46999-0.024h0.012l0.233996-0.011999 0.469991-0.024h0.011999l0.481991-0.012h0.012l0.46999-0.023999h0.012l0.223996-0.012h0.012l0.233995-0.012h0.012l0.223995-0.011999h0.012l0.139997-0.012h0.117998l0.257995-0.024h0.117998l0.151997-0.011999 0.257995-0.012 0.093998-0.012h0.163997l0.257995-0.024h0.081998l0.187996-0.011999 0.245996-0.012h0.057999l0.211995-0.012 0.257995-0.012 0.036-0.011999h0.223995l0.257995-0.024h0.024l0.233995-0.023999 0.245995-0.012h0.012l0.257995-0.012 0.233996-0.023999h0.035999l0.245995-0.012 0.211996-0.012h0.045999l0.257995-0.024 0.199996-0.011999h0.057999l0.257995-0.024 0.175996-0.012h0.081999l0.257995-0.023999 0.151997-0.012 0.105998-0.012 0.257995-0.011999 0.129997-0.012 0.129998-0.012 0.257995-0.012 0.105998-0.011999 0.151997-0.012 0.245995-0.024 0.093998-0.012 0.163997-0.011999 0.257995-0.012 0.069998-0.012 0.187997-0.012 0.245995-0.023999h0.057999l0.199996-0.012 0.257995-0.023999h0.035999l0.223996-0.024 0.245995-0.024h0.023999l0.233996-0.023999 0.245995-0.012 0.012-0.012 0.245995-0.011999 0.233995-0.012 0.024-0.012 0.257995-0.023999 0.211996-0.012 0.035999-0.012 0.257995-0.023999 0.199996-0.012 0.045999-0.012 0.257995-0.012 0.175997-0.012 0.081998-0.011999 0.245995-0.024 0.151997-0.012 0.105998-0.011999 0.245995-0.024 0.129998-0.023999h0.117998l0.257995-0.024 0.105998-0.012 0.139997-0.011999 0.257995-0.024 0.081998-0.012 0.163997-0.023999 0.245995-0.012 0.069999-0.012 0.187996-0.023999 0.245995-0.024h0.057999l0.187997-0.012 0.245995-0.035999h0.035999l0.223996-0.023999 0.233995-0.024h0.024l0.223995-0.024 0.257995-0.023999 0.129998-0.024 0.139997-0.011999h0.045999l0.093998-0.012 0.139997-0.012 0.139998-0.023999 0.129997-0.012h0.012l0.129997-0.012 0.129998-0.012 0.151997-0.012 0.093998-0.023999h0.035999l0.139998-0.012 0.129997-0.012 0.139997-0.011999 0.057999-0.012h0.081999l0.129997-0.024 0.139997-0.011999 0.129998-0.012 0.035999-0.012-0.269995 13.911728 3.145939 0.691987 3.381934-15.331701 0.421992-1.901963 1.02198-4.659909 0.739985-3.333934-54.616933-11.979766z m6.211879-47.077081l0.011999 0.199996 14.569716-66.02271c-6.527873 11.691772-10.647792 23.607539-12.865749 35.101314v0.012l-0.012 0.081998-0.129997 0.679987-0.069999 0.363993-0.069998 0.399992-0.117998 0.645987-0.012 0.129998-0.129997 0.763985-0.036 0.139997-0.093998 0.621988-0.069998 0.421992-0.046 0.351993-0.105997 0.679987-0.012 0.069998-0.105998 0.763985-0.024 0.199996-0.069998 0.55199-0.069999 0.48199-0.035999 0.281995-0.093998 0.751985-0.081999 0.751985-0.023999 0.269995-0.057999 0.481991-0.057999 0.539989-0.012 0.211996-0.069998 0.751985-0.012 0.045999-0.057999 0.691987-0.024 0.315994-0.035999 0.421991-0.045999 0.597989-0.012 0.151997-0.045999 0.739985-0.012 0.105998-0.035999 0.633988-0.023999 0.375993-0.024 0.351993-0.024 0.645987-0.011999 0.093998-0.024 0.727986-0.012 0.175997-0.023999 0.551989-0.012 0.433991-0.012 0.293995-0.011999 0.703986v0.023999l-0.012 0.715986v0.233996l-0.012 0.49399v1.457972l0.012 0.679986v0.293995l0.012 0.409992 0.011999 0.551989v0.163997l0.024 0.703986v0.081998l0.023999 0.621988 0.012 0.339994 0.024 0.351993 0.011999 0.597988 0.012 0.105998 0.036 0.691986 0.011999 0.139998 0.036 0.551989 0.023999 0.387992 0.024 0.293995 0.035999 0.633987v0.057999l0.067999 0.667987z m-40.115217 62.924771c-0.223996 0.069999-0.445991 0.151997-0.669987 0.211996 0.223996-0.059999 0.447991-0.141997 0.669987-0.211996z" fill="#903B13" p-id="4441"></path><path d="M1016.244151 597.952321c-0.387992 1.655968-0.821984 3.403934-1.291974 5.271897l1.291974-5.271897z m-2.735946 12.667753C970.565044 830.841773 786.630636 1000.512459 559.589071 1021.702045c-2.06596 0.199996-4.11992 0.387992-6.221879 0.563989l-4.495912 0.339993c-3.181938 0.233995-6.397875 0.433992-9.579813 0.633988l-3.06394 0.129997c-3.59193 0.175997-7.17186 0.305994-10.799789 0.421992l-1.843964 0.045999c-3.791926 0.057999-7.641851 0.129997-11.481776 0.129998l-0.597988 0.011999c-1.313974 0-2.663948-0.024-3.979923-0.057998-2.735947-0.024-5.447894-0.035999-8.15984-0.081999-2.347954-0.081998-4.671909-0.187996-7.031863-0.245995-1.701967-0.093998-3.403934-0.117998-5.0959-0.199996-2.629949-0.139997-5.235898-0.269995-7.853847-0.445991l-4.07392-0.257995c-3.06394-0.223996-6.13988-0.481991-9.191821-0.727986l-1.937962-0.187997C236.939372 1000.900451 52.74697 831.251765 9.615812 610.972067c239.61532 31.145392 441.265382-3.767926 712.142091 51.864987 94.832148 19.487619 195.170188-44.52713 291.750302-52.21698z" fill="#9FD2D9" p-id="4442"></path><path d="M989.852667 693.700451C922.045991 872.42296 757.129212 1003.272405 559.589071 1021.702045c-2.06596 0.199996-4.11992 0.387992-6.221879 0.563989l-4.495912 0.339993c-3.181938 0.233995-6.397875 0.433992-9.579813 0.633988l-3.06394 0.129997c-3.59193 0.175997-7.17186 0.305994-10.799789 0.421992l-1.843964 0.045999c-3.791926 0.057999-7.641851 0.129997-11.481776 0.129998l-0.597988 0.011999c-1.313974 0-2.663948-0.024-3.979923-0.057998-2.735947-0.024-5.447894-0.035999-8.15984-0.081999-2.347954-0.081998-4.671909-0.187996-7.031863-0.245995-1.701967-0.093998-3.403934-0.117998-5.0959-0.199996-2.629949-0.139997-5.235898-0.269995-7.853847-0.445991l-4.07392-0.257995c-3.06394-0.223996-6.13988-0.481991-9.191821-0.727986l-1.937962-0.187997c-197.846136-18.173645-363.056909-149.127087-430.945583-328.073592 111.771817 0 239.393324-50.527013 335.33945 0 199.480104 65.976711 410.027992-20.96759 621.279866 0z" fill="#44BAC9" p-id="4443"></path><path d="M890.326611 855.975282c-83.48037 92.026203-199.948095 153.517002-330.73754 165.726763-2.06596 0.199996-4.11992 0.387992-6.221879 0.563989l-4.495912 0.339993c-3.181938 0.233995-6.397875 0.433992-9.579813 0.633988l-3.06394 0.129997c-3.59193 0.175997-7.17186 0.305994-10.799789 0.421992l-1.843964 0.045999c-3.791926 0.057999-7.641851 0.129997-11.481776 0.129998l-0.597988 0.011999c-1.313974 0-2.663948-0.024-3.979923-0.057998-2.735947-0.024-5.447894-0.035999-8.15984-0.081999-2.347954-0.081998-4.671909-0.187996-7.031863-0.245995-1.701967-0.093998-3.403934-0.117998-5.0959-0.199996-2.629949-0.139997-5.235898-0.269995-7.853847-0.445991l-4.07392-0.257995c-3.06394-0.223996-6.13988-0.481991-9.191821-0.727986l-1.937962-0.187997c-131.07144-12.033765-247.80916-73.594563-331.429527-165.796761 268.354759-54.484936 484.784532 45.959102 757.577204-0.002z" fill="#22B1C3" p-id="4444"></path><path d="M278.720556 774.726869c70.378625 0 127.433511 1.54997 127.433511 3.463932s-57.054886 3.463932-127.433511 3.463932-127.433511-1.54997-127.433511-3.463932 57.054886-3.463932 127.433511-3.463932z m529.475659 154.314986c5.271897-3.755927 10.459796-7.619851 15.565696-11.563774-74.24055 0.50399-130.56745 2.923943-130.56745 5.845885 0.002 2.713947 48.603051 5.001902 115.001754 5.717889z m161.864838-190.004289a516.993902 516.993902 0 0 0 7.641851-16.083686c-42.779164 1.361973-72.70258 4.519912-72.70258 8.18184 0 3.441933 26.401484 6.423875 65.060729 7.901846zM436.851468 868.84303c47.557071 0 86.110318 1.995961 86.110318 4.461913 0 2.453952-38.553247 4.449913-86.110318 4.449913s-86.110318-1.995961-86.110318-4.449913c0.002-2.467952 38.553247-4.461913 86.110318-4.461913z m283.016472-40.619206c42.333173 0 76.646503 1.583969 76.646503 3.54593 0 1.959962-34.31533 3.545931-76.646503 3.545931-42.333173 0-76.646503-1.583969-76.646503-3.545931 0-1.961962 34.31333-3.545931 76.646503-3.54593z m-280.05853 102.028007c86.368313 0 156.370946 2.887944 156.370946 6.445874 0 3.545931-70.002633 6.433874-156.370946 6.433874s-156.382946-2.887944-156.382946-6.433874c0.002-3.557931 70.016632-6.445874 156.382946-6.445874z m227.641554-161.476846c110.961833 0 200.922076 2.663948 200.922076 5.951884 0 3.275936-89.960243 5.939884-200.922076 5.939884s-200.922076-2.663948-200.922076-5.939884c0-3.287936 89.960243-5.951884 200.922076-5.951884z m-56.420898-102.040007c57.934868 0 104.915951 1.725966 104.915951 3.861924s-46.981082 3.861925-104.915951 3.861925-104.915951-1.725966-104.915951-3.861925 46.983082-3.861925 104.915951-3.861924z m-375.604664-17.833652c67.502682 0 122.231613 1.103978 122.231613 2.477952 0 1.361973-54.728931 2.477952-122.231613 2.477951-67.514681 0-122.243612-1.115978-122.243613-2.477951 0-1.373973 54.728931-2.477952 122.243613-2.477952z" fill="#DFF5F9" p-id="4445"></path></svg>